<svg width="332" height="806" viewBox="0 0 332 806" fill="none" xmlns="http://www.w3.org/2000/svg">
<path fill-rule="evenodd" clip-rule="evenodd" d="M559.717 18.0976L564.684 16.4514L569.692 14.8684L574.741 13.3519L579.828 11.9052L584.953 10.5315L590.113 9.23342L595.307 8.01375L600.533 6.87476L605.79 5.8186L611.076 4.84741L616.389 3.96292L621.729 3.16716L627.092 2.46174L632.478 1.84852L637.885 1.32931L643.311 0.906074L648.754 0.580637L654.211 0.354748L659.682 0.229201L665.165 0.204054L670.659 0.278812L676.165 0.45262L681.682 0.724356L687.21 1.09291L692.749 1.55725L698.299 2.11669L703.859 2.77094L709.427 3.52033L715.004 4.366L720.586 5.30968L726.172 6.35381L731.757 7.50127L737.34 8.75454L742.916 10.1164L748.482 11.5891L754.035 13.1754L759.572 14.8776L765.088 16.6981L770.58 18.6393L776.042 20.7039L781.471 22.8944L786.862 25.2137L792.209 27.6644L797.506 30.2493L802.749 32.9713L807.93 35.8328L813.043 38.8368L818.081 41.9857L823.038 45.2819L827.906 48.7275L832.678 52.3244L837.346 56.0743L841.905 59.9784L846.345 64.0377L850.66 68.2526L854.842 72.6234L858.885 77.1495L862.782 81.8304L866.525 86.6645L870.11 91.6504L873.53 96.7854L876.779 102.067L879.853 107.492L882.746 113.057L885.455 118.758L887.976 124.59L890.305 130.547L892.441 136.626L894.381 142.82L896.123 149.123L897.667 155.529L899.011 162.031L900.158 168.623L901.106 175.297L901.858 182.047L902.414 188.866L902.777 195.746L902.95 202.68L902.936 209.662L902.738 216.683L902.36 223.737L901.805 230.817L901.08 237.916L900.187 245.028L899.133 252.145L897.921 259.263L896.558 266.374L895.049 273.474L893.399 280.556L891.613 287.616L889.698 294.648L887.658 301.648L885.499 308.612L883.226 315.535L880.846 322.414L878.362 329.244L875.78 336.023L873.105 342.748L870.342 349.416L867.495 356.024L864.569 362.569L861.568 369.051L858.497 375.467L855.36 381.815L852.159 388.094L848.9 394.302L845.586 400.438L842.22 406.502L838.805 412.492L835.346 418.407L831.847 424.247L828.312 430.012L824.747 435.702L821.158 441.315L817.55 446.854L813.931 452.319L810.307 457.71L806.688 463.03L803.08 468.281L799.493 473.465L795.936 478.585L792.42 483.645L788.955 488.649L785.549 493.603L782.212 498.511L778.951 503.379L775.773 508.213L772.684 513.019L769.689 517.803L766.791 522.57L763.994 527.329L761.301 532.084L758.711 536.842L756.227 541.609L753.848 546.392L751.572 551.195L749.399 556.026L747.326 560.889L745.35 565.788L743.466 570.73L741.67 575.717L739.957 580.754L738.321 585.844L736.756 590.99L735.253 596.192L733.806 601.454L732.407 606.775L731.046 612.156L729.716 617.595L728.405 623.091L727.106 628.643L725.807 634.246L724.499 639.898L723.172 645.592L721.814 651.325L720.417 657.09L718.969 662.88L717.462 668.687L715.883 674.503L714.225 680.319L712.478 686.124L710.633 691.91L708.681 697.665L706.615 703.377L704.426 709.036L702.11 714.629L699.658 720.143L697.066 725.567L694.329 730.888L691.444 736.093L688.406 741.169L685.215 746.104L681.868 750.886L678.364 755.502L674.705 759.942L670.891 764.194L666.925 768.247L662.809 772.092L658.546 775.719L654.142 779.121L649.601 782.29L644.93 785.218L640.136 787.901L635.224 790.334L630.204 792.514L625.084 794.438L619.872 796.104L614.578 797.514L609.212 798.668L603.782 799.567L598.3 800.216L592.775 800.619L587.217 800.781L581.637 800.709L576.043 800.409L570.446 799.889L564.854 799.158L559.278 798.225L553.724 797.1L548.202 795.793L542.72 794.315L537.285 792.678L531.902 790.89L526.579 788.964L521.32 786.909L516.13 784.734L511.013 782.45L505.973 780.067L501.013 777.593L496.137 775.038L491.346 772.41L486.642 769.72L482.027 766.976L477.503 764.186L473.069 761.36L468.728 758.506L464.478 755.633L460.32 752.748L456.254 749.862L452.279 746.982L448.394 744.117L444.598 741.275L440.888 738.465L437.264 735.695L433.724 732.972L430.264 730.305L426.883 727.702L423.577 725.169L420.343 722.714L417.178 720.343L414.079 718.064L411.041 715.882L408.061 713.804L405.134 711.835L402.257 709.979L399.424 708.243L396.631 706.629L393.874 705.143L391.148 703.788L388.447 702.566L385.768 701.481L383.104 700.536L380.452 699.731L377.805 699.068L375.159 698.549L372.51 698.175L369.851 697.945L367.179 697.859L364.488 697.918L361.773 698.12L359.03 698.464L356.255 698.949L353.442 699.574L350.587 700.336L347.686 701.233L344.735 702.262L341.729 703.42L338.665 704.706L335.539 706.114L332.347 707.642L329.086 709.287L325.752 711.043L322.342 712.907L318.853 714.875L315.282 716.942L311.626 719.104L307.884 721.354L304.052 723.689L300.129 726.103L296.112 728.59L292 731.145L287.791 733.761L283.485 736.432L279.081 739.153L274.577 741.916L269.973 744.714L265.27 747.54L260.467 750.388L255.566 753.249L250.566 756.116L245.47 758.981L240.278 761.837L234.993 764.675L229.616 767.487L224.15 770.265L218.597 773.002L212.961 775.689L207.244 778.319L201.449 780.884L195.581 783.378L189.642 785.792L183.638 788.118L177.573 790.348L171.454 792.471L165.289 794.478L159.085 796.355L152.852 798.092L146.6 799.675L140.341 801.091L134.088 802.327L127.853 803.367L121.653 804.199L115.501 804.807L109.416 805.177L103.414 805.295L97.5136 805.148L91.7327 804.722L86.0889 804.008L80.5999 802.997L75.2829 801.68L70.1549 800.051L65.2319 798.106L60.5295 795.841L56.0625 793.256L51.8446 790.351L47.8887 787.127L44.2064 783.588L40.8083 779.74L37.7038 775.588L34.9007 771.142L32.4057 766.41L30.2239 761.404L28.3591 756.135L26.8135 750.617L25.5878 744.864L24.6811 738.892L24.0911 732.716L23.8138 726.353L23.8438 719.821L24.1741 713.137L24.7964 706.321L25.7007 699.39L26.8757 692.364L28.3089 685.261L29.9863 678.1L31.8929 670.899L34.0123 663.677L36.3273 656.452L38.8196 649.24L41.47 642.058L44.2586 634.923L47.1648 627.85L50.1674 620.852L53.2448 613.943L56.375 607.135L59.5359 600.44L62.7051 593.867L65.8604 587.425L68.9799 581.121L72.0415 574.962L75.0241 568.953L77.9066 563.097L80.6689 557.397L83.2917 551.853L85.7562 546.465L88.0451 541.232L90.1419 536.15L92.0315 531.216L93.7 526.424L95.1351 521.768L96.3258 517.24L97.2628 512.832L97.9384 508.535L98.3468 504.338L98.4836 500.232L98.3465 496.204L97.935 492.242L97.2502 488.334L96.2952 484.469L95.0749 480.632L93.5958 476.811L91.8665 472.994L89.8968 469.167L87.6982 465.319L85.2839 461.437L82.6681 457.51L79.8663 453.528L76.895 449.48L73.7717 445.356L70.5144 441.149L67.142 436.85L63.6737 432.453L60.1295 427.952L56.53 423.342L52.896 418.619L49.2486 413.78L45.6091 408.824L41.9984 403.75L38.4372 398.558L34.9454 393.25L31.5426 387.829L28.247 382.297L25.076 376.659L22.0455 370.92L19.1703 365.085L16.4636 359.161L13.9374 353.155L11.6033 347.074L9.47177 340.926L7.55262 334.719L5.85463 328.462L4.38562 322.165L3.15253 315.835L2.16128 309.485L1.41691 303.122L0.92349 296.757L0.68414 290.4L0.701055 284.061L0.975489 277.75L1.50781 271.477L2.2974 265.252L3.34283 259.083L4.64178 252.981L6.19104 246.955L7.98667 241.012L10.0239 235.161L12.2972 229.41L14.8003 223.766L17.5264 218.236L20.468 212.825L23.617 207.541L26.9649 202.386L30.5026 197.367L34.2208 192.486L38.1096 187.747L42.1592 183.152L46.3591 178.703L50.699 174.402L55.1685 170.248L59.7569 166.241L64.4539 162.382L69.249 158.669L74.1319 155.099L79.0925 151.672L84.121 148.384L89.2078 145.232L94.3437 142.213L99.5199 139.323L104.728 136.558L109.959 133.914L115.207 131.386L120.464 128.97L125.723 126.661L130.979 124.454L136.226 122.345L141.458 120.329L146.671 118.402L151.861 116.559L157.025 114.795L162.159 113.107L167.26 111.492L172.327 109.944L177.358 108.462L182.351 107.042L187.305 105.681L192.219 104.377L197.092 103.127L201.926 101.93L206.718 100.784L211.471 99.6876L216.183 98.6398L220.856 97.6396L225.49 96.6865L230.085 95.7798L234.643 94.9195L239.164 94.1053L243.649 93.3374L248.098 92.6159L252.513 91.9413L256.895 91.314L261.243 90.735L265.559 90.2047L269.844 89.7239L274.097 89.2933L278.32 88.9131L282.513 88.5836L286.675 88.3046L290.807 88.0755L294.908 87.8956L298.978 87.7637L303.018 87.678L307.025 87.6361L311 87.6352L314.942 87.6719L318.851 87.7419L322.726 87.8401L326.565 87.9608L330.369 88.0976L334.137 88.2444L337.87 88.3948L341.566 88.5427L345.228 88.6818L348.854 88.8058L352.447 88.9087L356.008 88.9845L359.537 89.0277L363.036 89.0327L366.507 88.9944L369.953 88.9081L373.375 88.7694L376.775 88.5744L380.157 88.3192L383.523 88.0009L386.875 87.6165L390.217 87.1636L393.551 86.6403L396.881 86.0448L400.209 85.376L403.539 84.6329L406.873 83.815L410.215 82.9222L413.568 81.9544L416.934 80.9123L420.318 79.7965L423.721 78.6082L427.146 77.3484L430.597 76.0191L434.075 74.6217L437.585 73.1586L441.127 71.632L444.705 70.0444L448.321 68.3986L451.977 66.6976L455.675 64.9445L459.417 63.1426L463.205 61.2957L467.041 59.4073L470.925 57.4813L474.859 55.522L478.845 53.5333L482.884 51.5198L486.975 49.4858L491.121 47.4361L495.321 45.3753L499.575 43.3082L503.885 41.2397L508.249 39.1748L512.668 37.1183L517.142 35.0754L521.669 33.0509L526.249 31.0498L530.882 29.077L535.566 27.1374L540.301 25.2357L545.085 23.3765L549.916 21.5642L554.794 19.8032L559.717 18.0976Z" fill="url(#paint0_linear_144_85)"/>
<defs>
<linearGradient id="paint0_linear_144_85" x1="-1505.38" y1="1675.5" x2="-2026.95" y2="959.131" gradientUnits="userSpaceOnUse">
<stop stop-color="#FF74A2"/>
<stop offset="1" stop-color="#FFF7F2"/>
</linearGradient>
</defs>
</svg>
