<svg width="151" height="600" viewBox="0 0 151 600" fill="none" xmlns="http://www.w3.org/2000/svg">
<path fill-rule="evenodd" clip-rule="evenodd" d="M141.712 240.599L142.84 245.435L143.903 250.315L144.898 255.236L145.824 260.195L146.679 265.192L147.462 270.223L148.171 275.287L148.804 280.38L149.361 285.501L149.839 290.647L150.236 295.815L150.553 301.003L150.786 306.207L150.936 311.424L151 316.652L150.978 321.887L150.868 327.126L150.669 332.366L150.381 337.603L150.004 342.835L149.535 348.057L148.976 353.267L148.325 358.461L147.582 363.635L146.748 368.786L145.823 373.911L144.806 379.007L143.699 384.069L142.502 389.095L141.215 394.082L139.839 399.027L138.376 403.926L136.827 408.777L135.193 413.577L133.475 418.323L131.676 423.013L129.796 427.645L127.838 432.217L125.804 436.726L123.695 441.17L121.514 445.549L119.264 449.86L116.946 454.103L114.562 458.277L112.116 462.379L109.61 466.411L107.046 470.37L104.427 474.258L101.755 478.074L99.0326 481.817L96.2627 485.489L93.4475 489.089L90.5896 492.619L87.6912 496.078L84.7549 499.467L81.7827 502.788L78.777 506.042L75.7398 509.229L72.6733 512.352L69.5793 515.411L66.4596 518.407L63.316 521.343L60.1502 524.22L56.9636 527.038L53.7576 529.801L50.5335 532.508L47.2924 535.162L44.0354 537.764L40.7634 540.315L37.4772 542.817L34.1775 545.271L30.8648 547.677L27.5396 550.037L24.2023 552.352L20.8532 554.622L17.4924 556.849L14.1201 559.031L10.7362 561.171L7.34079 563.267L3.93369 565.32L0.514771 567.329L-2.91614 569.295L-6.35925 571.216L-9.81485 573.091L-13.2831 574.921L-16.7643 576.703L-20.2588 578.436L-23.7667 580.119L-27.2882 581.75L-30.8236 583.328L-34.3729 584.85L-37.9362 586.315L-41.5135 587.72L-45.1048 589.063L-48.71 590.341L-52.3287 591.552L-55.9608 592.693L-59.6057 593.763L-63.2631 594.757L-66.9323 595.674L-70.6126 596.51L-74.3032 597.263L-78.0032 597.931L-81.7116 598.51L-85.4273 598.999L-89.149 599.394L-92.8753 599.694L-96.605 599.896L-100.337 599.999L-104.068 600L-107.798 599.898L-111.525 599.692L-115.247 599.379L-118.963 598.96L-122.669 598.434L-126.365 597.799L-130.048 597.057L-133.717 596.206L-137.37 595.247L-141.004 594.18L-144.618 593.005L-148.21 591.723L-151.777 590.334L-155.319 588.839L-158.833 587.24L-162.317 585.536L-165.77 583.729L-169.189 581.821L-172.573 579.813L-175.921 577.707L-179.23 575.504L-182.5 573.206L-185.728 570.815L-188.913 568.334L-192.054 565.764L-195.15 563.108L-198.199 560.367L-201.201 557.546L-204.153 554.645L-207.056 551.669L-209.909 548.619L-212.71 545.498L-215.459 542.309L-218.155 539.055L-220.799 535.739L-223.389 532.363L-225.925 528.931L-228.407 525.446L-230.835 521.911L-233.209 518.328L-235.529 514.702L-237.796 511.034L-240.01 507.329L-242.171 503.59L-244.28 499.819L-246.338 496.019L-248.346 492.193L-250.304 488.345L-252.213 484.477L-254.074 480.591L-255.889 476.691L-257.658 472.778L-259.384 468.855L-261.066 464.924L-262.706 460.988L-264.306 457.047L-265.866 453.105L-267.389 449.162L-268.875 445.221L-270.327 441.282L-271.744 437.347L-273.129 433.417L-274.483 429.493L-275.807 425.576L-277.102 421.666L-278.37 417.764L-279.612 413.87L-280.829 409.985L-282.022 406.109L-283.191 402.242L-284.339 398.383L-285.465 394.534L-286.572 390.693L-287.658 386.86L-288.726 383.034L-289.776 379.216L-290.807 375.405L-291.822 371.599L-292.82 367.799L-293.801 364.004L-294.765 360.212L-295.714 356.424L-296.646 352.637L-297.561 348.852L-298.46 345.067L-299.342 341.281L-300.206 337.494L-301.052 333.704L-301.88 329.911L-302.688 326.113L-303.475 322.31L-304.241 318.502L-304.985 314.687L-305.705 310.864L-306.401 307.034L-307.07 303.195L-307.712 299.347L-308.324 295.49L-308.907 291.624L-309.458 287.748L-309.975 283.862L-310.457 279.967L-310.903 276.063L-311.31 272.15L-311.678 268.228L-312.004 264.298L-312.286 260.361L-312.525 256.417L-312.717 252.468L-312.861 248.515L-312.956 244.558L-313 240.599L-312.993 236.639L-312.932 232.68L-312.817 228.723L-312.647 224.77L-312.421 220.823L-312.138 216.884L-311.798 212.953L-311.399 209.034L-310.941 205.128L-310.425 201.236L-309.848 197.362L-309.213 193.507L-308.518 189.672L-307.763 185.861L-306.95 182.074L-306.077 178.314L-305.146 174.583L-304.157 170.883L-303.111 167.215L-302.008 163.581L-300.85 159.983L-299.637 156.423L-298.37 152.901L-297.052 149.421L-295.681 145.982L-294.261 142.587L-292.792 139.236L-291.277 135.931L-289.715 132.672L-288.11 129.46L-286.461 126.297L-284.772 123.183L-283.044 120.119L-281.278 117.104L-279.475 114.14L-277.639 111.226L-275.769 108.363L-273.868 105.551L-271.938 102.791L-269.98 100.081L-267.995 97.4217L-265.984 94.8133L-263.951 92.2553L-261.895 89.7474L-259.818 87.289L-257.722 84.8798L-255.608 82.5188L-253.478 80.2054L-251.333 77.9388L-249.174 75.7178L-247.003 73.5416L-244.82 71.409L-242.628 69.3186L-240.428 67.2694L-238.22 65.26L-236.005 63.2889L-233.786 61.3547L-231.561 59.456L-229.334 57.5913L-227.103 55.7591L-224.87 53.9578L-222.636 52.1861L-220.401 50.4423L-218.165 48.725L-215.929 47.0329L-213.693 45.3646L-211.458 43.7187L-209.222 42.0941L-206.987 40.4896L-204.752 38.904L-202.518 37.3366L-200.283 35.7864L-198.047 34.2529L-195.81 32.7356L-193.572 31.2345L-191.332 29.7496L-189.088 28.2811L-186.841 26.8295L-184.59 25.3956L-182.334 23.9803L-180.071 22.5847L-177.802 21.2102L-175.525 19.8582L-173.24 18.5306L-170.947 17.2292L-168.643 15.9559L-166.329 14.7131L-164.005 13.503L-161.669 12.328L-159.322 11.1907L-156.963 10.0935L-154.592 9.03915L-152.209 8.03025L-149.813 7.06949L-147.406 6.1595L-144.988 5.3029L-142.558 4.50226L-140.117 3.76005L-137.666 3.07866L-135.206 2.46034L-132.737 1.90722L-130.26 1.42126L-127.776 1.00422L-125.287 0.657678L-122.792 0.382994L-120.295 0.181284L-117.795 0.0534184L-115.294 0L-112.793 0.0213556L-110.294 0.117523L-107.798 0.288243L-105.307 0.53295L-102.821 0.850768L-100.342 1.24051L-97.8704 1.70066L-95.4084 2.2294L-92.9567 2.8247L-90.516 3.48434L-88.0874 4.20596L-85.6716 4.98708L-83.2691 5.82509L-80.8806 6.7173L-78.5065 7.6609L-76.1472 8.65303L-73.8027 9.69076L-71.4732 10.7711L-69.1586 11.8912L-66.8588 13.0479L-64.5736 14.2384L-62.3025 15.4597L-60.0449 16.7088L-57.8004 17.9831L-55.5682 19.2796L-53.3475 20.5959L-51.1373 21.9293L-48.9368 23.2775L-46.7448 24.6383L-44.5602 26.0094L-42.3819 27.389L-40.2086 28.7753L-38.039 30.1668L-35.8718 31.562L-33.7057 32.9598L-31.5395 34.3593L-29.3716 35.7596L-27.2009 37.1603L-25.0261 38.5608L-22.8457 39.9611L-20.6586 41.361L-18.4634 42.7606L-16.2589 44.1602L-14.044 45.5604L-11.8175 46.9617L-9.57849 48.3651L-7.32584 49.7715L-5.05875 51.1821L-2.7764 52.5983L-0.478119 54.0216L1.8367 55.4536L4.16852 56.8963L6.51767 58.3515L8.8844 59.8212L11.2688 61.3078L13.6708 62.8134L16.0903 64.3404L18.527 65.8912L20.9804 67.4684L23.45 69.0743L25.9352 70.7116L28.435 72.3829L30.9486 74.0905L33.4749 75.8372L36.0127 77.6254L38.5607 79.4574L41.1178 81.3358L43.6823 83.2627L46.2527 85.2405L48.8274 87.2713L51.4049 89.357L53.9833 91.4996L56.561 93.7008L59.1362 95.9623L61.707 98.2856L64.2718 100.672L66.8287 103.123L69.3761 105.639L71.9121 108.222L74.4352 110.872L76.9437 113.59L79.436 116.376L81.9107 119.231L84.3662 122.154L86.801 125.147L89.2136 128.21L91.6024 131.342L93.9661 134.544L96.3029 137.815L98.6113 141.155L100.89 144.565L103.137 148.043L105.352 151.59L107.532 155.205L109.677 158.888L111.784 162.637L113.853 166.453L115.881 170.335L117.868 174.282L119.812 178.293L121.711 182.368L123.565 186.505L125.371 190.703L127.128 194.962L128.835 199.28L130.491 203.656L132.094 208.089L133.642 212.578L135.134 217.121L136.57 221.717L137.947 226.364L139.264 231.061L140.519 235.807L141.712 240.599Z" fill="url(#paint0_linear_144_101)"/>
<defs>
<linearGradient id="paint0_linear_144_101" x1="-659.568" y1="224.613" x2="-965.878" y2="-248.009" gradientUnits="userSpaceOnUse">
<stop stop-color="#FF74A2"/>
<stop offset="1" stop-color="#FFF7F2"/>
</linearGradient>
</defs>
</svg>
