<svg width="490" height="884" viewBox="0 0 490 884" fill="none" xmlns="http://www.w3.org/2000/svg">
<path fill-rule="evenodd" clip-rule="evenodd" d="M571.536 395.218L572.093 399.179L572.723 403.158L573.424 407.159L574.193 411.186L575.028 415.243L575.925 419.333L576.88 423.46L577.889 427.626L578.947 431.836L580.051 436.091L581.196 440.393L582.377 444.746L583.589 449.152L584.828 453.611L586.09 458.126L587.368 462.699L588.659 467.329L589.956 472.018L591.254 476.767L592.548 481.576L593.832 486.444L595.1 491.371L596.348 496.358L597.569 501.402L598.757 506.503L599.907 511.659L601.013 516.868L602.069 522.128L603.069 527.438L604.009 532.793L604.883 538.193L605.686 543.632L606.412 549.109L607.057 554.62L607.617 560.161L608.087 565.728L608.464 571.318L608.744 576.927L608.923 582.55L609 588.185L608.971 593.826L608.835 599.471L608.589 605.114L608.231 610.753L607.76 616.382L607.174 621.997L606.472 627.595L605.654 633.172L604.719 638.723L603.666 644.245L602.497 649.734L601.21 655.187L599.806 660.599L598.287 665.968L596.653 671.29L594.905 676.563L593.045 681.784L591.075 686.95L588.996 692.059L586.811 697.109L584.522 702.097L582.131 707.023L579.641 711.884L577.055 716.68L574.374 721.41L571.603 726.073L568.745 730.668L565.801 735.195L562.775 739.655L559.671 744.047L556.492 748.372L553.239 752.63L549.918 756.823L546.529 760.95L543.077 765.013L539.565 769.013L535.994 772.952L532.368 776.831L528.689 780.65L524.959 784.413L521.181 788.119L517.357 791.77L513.489 795.369L509.578 798.915L505.627 802.411L501.636 805.858L497.607 809.257L493.542 812.608L489.44 815.913L485.304 819.172L481.133 822.385L476.929 825.553L472.692 828.676L468.421 831.753L464.118 834.785L459.783 837.769L455.415 840.706L451.013 843.592L446.579 846.425L442.11 849.202L437.607 851.92L433.068 854.572L428.493 857.154L423.881 859.661L419.232 862.087L414.545 864.424L409.821 866.666L405.058 868.806L400.258 870.837L395.421 872.752L390.547 874.541L385.638 876.199L380.694 877.717L375.718 879.089L370.712 880.306L365.677 881.362L360.617 882.25L355.534 882.963L350.431 883.496L345.312 883.843L340.182 884L335.043 883.962L329.9 883.725L324.757 883.286L319.62 882.645L314.493 881.798L309.38 880.746L304.287 879.489L299.218 878.028L294.18 876.365L289.175 874.502L284.21 872.442L279.288 870.187L274.415 867.742L269.595 865.11L264.832 862.297L260.131 859.308L255.495 856.147L250.927 852.822L246.432 849.338L242.013 845.703L237.673 841.924L233.413 838.009L229.237 833.965L225.147 829.801L221.144 825.525L217.23 821.146L213.405 816.673L209.671 812.115L206.028 807.482L202.476 802.781L199.014 798.023L195.641 793.218L192.358 788.374L189.161 783.501L186.051 778.607L183.024 773.703L180.078 768.796L177.21 763.897L174.418 759.012L171.698 754.15L169.047 749.32L166.462 744.529L163.937 739.784L161.469 735.091L159.054 730.459L156.687 725.891L154.364 721.395L152.079 716.976L149.829 712.637L147.607 708.384L145.41 704.219L143.233 700.147L141.069 696.17L138.916 692.29L136.767 688.508L134.618 684.827L132.465 681.246L130.304 677.765L128.129 674.385L125.937 671.103L123.725 667.92L121.488 664.833L119.223 661.839L116.928 658.936L114.599 656.12L112.235 653.388L109.834 650.734L107.395 648.153L104.918 645.639L102.403 643.186L99.8508 640.786L97.2623 638.434L94.6394 636.121L91.9842 633.841L89.2995 631.586L86.5883 629.348L83.8542 627.121L81.1011 624.896L78.3331 622.668L75.5548 620.427L72.7711 618.169L69.987 615.887L67.2075 613.574L64.4382 611.226L61.6843 608.836L58.9513 606.401L56.2446 603.915L53.5694 601.375L50.9311 598.779L48.3345 596.122L45.7844 593.404L43.2853 590.623L40.8412 587.777L38.4557 584.866L36.1321 581.89L33.8731 578.851L31.6811 575.749L29.5585 572.585L27.5072 569.36L25.529 566.077L23.6255 562.737L21.798 559.342L20.0475 555.895L18.3748 552.398L16.7805 548.853L15.2649 545.263L13.8281 541.63L12.4699 537.958L11.19 534.249L9.98777 530.507L8.86249 526.732L7.81316 522.93L6.83864 519.102L5.93761 515.251L5.1086 511.38L4.35001 507.492L3.6601 503.589L3.03703 499.673L2.47886 495.748L1.98357 491.815L1.54907 487.877L1.17322 483.935L0.853836 479.991L0.588726 476.048L0.375671 472.107L0.212457 468.17L0.096885 464.237L0.0267793 460.311L0 456.392L0.0144515 452.482L0.0680915 448.581L0.158939 444.69L0.285081 440.811L0.444677 436.942L0.635966 433.086L0.857269 429.242L1.10699 425.41L1.38362 421.591L1.68575 417.785L2.01203 413.992L2.36122 410.212L2.73216 406.445L3.12377 402.69L3.53504 398.948L3.96505 395.218L4.41293 391.5L4.87791 387.793L5.35923 384.097L5.85622 380.413L6.36826 376.738L6.89474 373.074L7.43512 369.419L7.98876 365.772L8.55475 362.135L9.13189 358.504L9.71875 354.881L10.3136 351.264L10.9146 347.652L11.5196 344.043L12.1264 340.437L12.7325 336.832L13.3356 333.227L13.9329 329.619L14.5221 326.007L15.1003 322.388L15.6651 318.76L16.2139 315.121L16.7442 311.468L17.2538 307.798L17.7404 304.109L18.202 300.398L18.6369 296.661L19.0434 292.895L19.4204 289.098L19.7667 285.266L20.0817 281.395L20.3652 277.484L20.6171 273.529L20.8379 269.527L21.0284 265.476L21.19 261.372L21.3244 257.214L21.4338 253L21.521 248.728L21.5888 244.397L21.6409 240.005L21.6807 235.553L21.7121 231.038L21.7394 226.463L21.7667 221.825L21.7987 217.127L21.84 212.369L21.8958 207.552L21.9709 202.679L22.0706 197.75L22.2003 192.769L22.3653 187.739L22.5711 182.662L22.8232 177.543L23.1271 172.385L23.4883 167.194L23.9123 161.973L24.4044 156.728L24.97 151.465L25.6142 146.19L26.3421 140.908L27.1584 135.627L28.068 130.353L29.0751 125.093L30.1841 119.855L31.3987 114.646L32.7228 109.474L34.1595 104.347L35.7119 99.2722L37.3826 94.2588L39.174 89.3147L41.0879 84.4478L43.1259 79.6666L45.2891 74.979L47.5784 70.3931L49.9939 65.917L52.5356 61.5583L55.2031 57.3246L57.9953 53.2234L60.911 49.2617L63.9484 45.4463L67.1053 41.7836L70.3793 38.2797L73.7675 34.9404L77.2664 31.7708L80.8725 28.7757L84.5818 25.9595L88.3899 23.3258L92.2923 20.8781L96.2841 18.6189L100.36 16.5503L104.515 14.6739L108.743 12.9905L113.039 11.5006L117.396 10.2036L121.81 9.09871L126.272 8.18398L130.778 7.45649L135.319 6.91224L139.891 6.54624L144.486 6.3525L149.097 6.32417L153.718 6.45349L158.343 6.73193L162.965 7.15022L167.579 7.69841L172.178 8.36597L176.759 9.14184L181.315 10.0145L185.843 10.9721L190.338 12.0024L194.797 13.093L199.217 14.2315L203.596 15.4054L207.931 16.602L212.222 17.8092L216.467 19.0147L220.666 20.2067L224.819 21.3737L228.926 22.5049L232.99 23.5897L237.011 24.6184L240.992 25.5819L244.935 26.472L248.844 27.2811L252.72 28.0028L256.568 28.6315L260.392 29.1629L264.195 29.5931L267.982 29.9192L271.757 30.139L275.524 30.2511L279.288 30.2547L283.053 30.1498L286.823 29.9372L290.603 29.6183L294.397 29.1954L298.21 28.6713L302.044 28.0496L305.905 27.3347L309.795 26.5312L313.718 25.6447L317.677 24.6814L321.676 23.6476L325.716 22.5505L329.8 21.3977L333.929 20.1971L338.106 18.9569L342.332 17.686L346.606 16.3931L350.931 15.0875L355.305 13.7785L359.728 12.4755L364.201 11.1883L368.721 9.92639L373.287 8.69941L377.897 7.51693L382.549 6.38842L387.241 5.32321L391.969 4.33045L396.73 3.41904L401.521 2.59762L406.337 1.87455L411.175 1.25779L416.031 0.75498L420.899 0.373309L425.775 0.119549L430.655 0L435.532 0.0204772L440.402 0.186287L445.259 0.50221L450.099 0.972489L454.915 1.60081L459.703 2.39032L464.457 3.34356L469.171 4.46256L473.842 5.74874L478.463 7.20298L483.029 8.8256L487.537 10.6164L491.98 12.5746L496.356 14.6989L500.659 16.9876L504.886 19.4384L509.033 22.0487L513.097 24.8155L517.073 27.7357L520.96 30.806L524.754 34.0228L528.451 37.3826L532.05 40.8814L535.547 44.5153L538.941 48.2799L542.228 52.171L545.408 56.1841L548.478 60.3145L551.436 64.5576L554.282 68.9084L557.014 73.3622L559.631 77.9137L562.132 82.5581L564.518 87.2902L566.786 92.1047L568.938 96.9967L570.973 101.961L572.892 106.992L574.694 112.085L576.38 117.235L577.952 122.436L579.41 127.685L580.754 132.975L581.986 138.303L583.107 143.663L584.118 149.051L585.021 154.463L585.817 159.894L586.507 165.34L587.093 170.796L587.577 176.26L587.962 181.726L588.249 187.191L588.441 192.65L588.541 198.1L588.553 203.535L588.48 208.954L588.325 214.351L588.092 219.724L587.786 225.068L587.41 230.381L586.97 235.658L586.471 240.898L585.916 246.097L585.31 251.253L584.661 256.363L583.971 261.426L583.248 266.438L582.496 271.399L581.722 276.307L580.93 281.161L580.127 285.961L579.318 290.704L578.509 295.392L577.706 300.024L576.915 304.601L576.14 309.123L575.387 313.591L574.662 318.005L573.97 322.369L573.316 326.683L572.704 330.949L572.14 335.17L571.627 339.347L571.17 343.485L570.772 347.586L570.437 351.652L570.168 355.688L569.967 359.697L569.838 363.683L569.783 367.649L569.802 371.6L569.898 375.54L570.071 379.473L570.321 383.403L570.649 387.334L571.055 391.271L571.536 395.218Z" fill="url(#paint0_linear_144_107)"/>
<defs>
<linearGradient id="paint0_linear_144_107" x1="473.498" y1="359.844" x2="-7.19417" y2="992.36" gradientUnits="userSpaceOnUse">
<stop stop-color="#FF73A2"/>
<stop offset="1" stop-color="#FFF7F2"/>
</linearGradient>
</defs>
</svg>
