<svg width="407" height="310" viewBox="0 0 407 310" fill="none" xmlns="http://www.w3.org/2000/svg">
<path fill-rule="evenodd" clip-rule="evenodd" d="M401.953 128.359L402.417 129.533L402.855 130.714L403.267 131.901L403.652 133.094L404.011 134.293L404.345 135.498L404.653 136.708L404.938 137.923L405.198 139.143L405.436 140.368L405.653 141.598L405.848 142.833L406.023 144.071L406.18 145.315L406.318 146.563L406.44 147.815L406.546 149.073L406.637 150.335L406.715 151.602L406.781 152.874L406.836 154.152L406.88 155.436L406.916 156.725L406.944 158.021L406.965 159.324L406.98 160.635L406.99 161.952L406.996 163.279L406.999 164.613L407 165.957L406.999 167.311L406.997 168.675L406.994 170.05L406.991 171.436L406.988 172.834L406.986 174.245L406.984 175.669L406.983 177.107L406.982 178.559L406.982 180.025L406.981 181.507L406.98 183.004L406.978 184.518L406.975 186.048L406.968 187.595L406.959 189.158L406.945 190.74L406.926 192.338L406.9 193.955L406.866 195.589L406.822 197.24L406.767 198.909L406.7 200.595L406.618 202.299L406.52 204.019L406.405 205.756L406.27 207.509L406.114 209.278L405.935 211.061L405.731 212.859L405.502 214.671L405.243 216.497L404.955 218.334L404.636 220.183L404.283 222.043L403.895 223.913L403.47 225.791L403.007 227.677L402.504 229.57L401.959 231.468L401.372 233.371L400.74 235.276L400.062 237.184L399.338 239.092L398.565 240.999L397.743 242.904L396.87 244.806L395.946 246.702L394.969 248.592L393.939 250.475L392.855 252.348L391.717 254.21L390.523 256.06L389.273 257.897L387.968 259.718L386.606 261.523L385.188 263.309L383.713 265.076L382.182 266.822L380.594 268.546L378.951 270.247L377.251 271.922L375.496 273.571L373.685 275.193L371.821 276.786L369.902 278.348L367.931 279.88L365.907 281.38L363.833 282.846L361.708 284.279L359.534 285.676L357.311 287.037L355.042 288.362L352.728 289.649L350.369 290.899L347.967 292.109L345.524 293.281L343.041 294.413L340.519 295.504L337.96 296.556L335.366 297.567L332.738 298.536L330.078 299.465L327.386 300.353L324.666 301.2L321.918 302.006L319.144 302.771L316.345 303.495L313.524 304.179L310.682 304.822L307.819 305.425L304.939 305.989L302.041 306.513L299.129 306.998L296.202 307.445L293.263 307.854L290.313 308.225L287.352 308.56L284.384 308.858L281.407 309.12L278.425 309.347L275.437 309.54L272.446 309.698L269.451 309.822L266.455 309.914L263.458 309.973L260.46 310L257.464 309.996L254.469 309.96L251.477 309.895L248.488 309.799L245.503 309.673L242.523 309.519L239.549 309.335L236.581 309.122L233.619 308.882L230.666 308.613L227.721 308.316L224.784 307.991L221.858 307.639L218.941 307.259L216.036 306.852L213.142 306.418L210.26 305.957L207.39 305.47L204.535 304.956L201.693 304.416L198.865 303.85L196.053 303.258L193.257 302.64L190.477 301.997L187.714 301.328L184.969 300.635L182.241 299.916L179.532 299.173L176.843 298.405L174.173 297.614L171.524 296.798L168.895 295.958L166.288 295.095L163.703 294.209L161.14 293.3L158.601 292.368L156.084 291.413L153.592 290.437L151.124 289.439L148.681 288.42L146.263 287.379L143.871 286.318L141.505 285.236L139.165 284.135L136.852 283.014L134.566 281.874L132.308 280.715L130.078 279.538L127.875 278.344L125.701 277.131L123.555 275.902L121.438 274.657L119.35 273.396L117.29 272.119L115.26 270.828L113.258 269.522L111.286 268.203L109.341 266.871L107.426 265.527L105.538 264.171L103.679 262.805L101.847 261.428L100.042 260.042L98.2634 258.647L96.511 257.245L94.7839 255.835L93.0816 254.419L91.4033 252.997L89.7483 251.571L88.1158 250.139L86.505 248.704L84.915 247.266L83.3449 245.825L81.7939 244.383L80.2609 242.939L78.7452 241.493L77.2457 240.048L75.7614 238.602L74.2915 237.156L72.835 235.711L71.3909 234.267L69.9583 232.824L68.5364 231.383L67.1242 229.943L65.7209 228.504L64.3257 227.067L62.9378 225.632L61.5565 224.198L60.181 222.766L58.8108 221.335L57.4453 219.906L56.0839 218.478L54.7262 217.051L53.3717 215.624L52.0201 214.198L50.6711 212.772L49.3245 211.346L47.9802 209.92L46.6381 208.492L45.2981 207.063L43.9604 205.632L42.6249 204.199L41.2921 202.763L39.962 201.324L38.635 199.882L37.3116 198.435L35.9922 196.984L34.6774 195.528L33.3678 194.067L32.0643 192.6L30.7676 191.126L29.4787 189.645L28.1985 188.157L26.9282 186.661L25.6688 185.157L24.4216 183.644L23.1878 182.123L21.9688 180.592L20.766 179.051L19.5809 177.501L18.4148 175.94L17.2694 174.369L16.1462 172.787L15.0469 171.194L13.973 169.591L12.9263 167.976L11.9084 166.351L10.9209 164.715L9.96568 163.068L9.04427 161.41L8.15839 159.742L7.3097 158.063L6.49985 156.374L5.73045 154.675L5.00309 152.967L4.31931 151.25L3.68062 149.525L3.08847 147.791L2.54426 146.049L2.04935 144.301L1.60501 142.546L1.21245 140.785L0.872807 139.02L0.587154 137.249L0.35647 135.476L0.181652 133.699L0.0635133 131.92L0.00276867 130.14L0 128.359L0.0556353 126.579L0.169949 124.8L0.343067 123.023L0.574963 121.249L0.865471 119.479L1.21428 117.714L1.62094 115.954L2.08488 114.201L2.60539 112.454L3.18164 110.716L3.8127 108.986L4.4975 107.266L5.2349 105.556L6.02364 103.857L6.86238 102.169L7.74972 100.493L8.68414 98.8292L9.6641 97.1786L10.688 95.5412L11.7541 93.9177L12.8607 92.3082L14.0062 90.7131L15.1886 89.1325L16.4063 87.5667L17.6575 86.0159L18.9403 84.4801L20.2529 82.9593L21.5936 81.4536L22.9606 79.9629L24.3523 78.4871L25.7668 77.0261L27.2026 75.5798L28.658 74.1479L30.1315 72.7302L31.6217 71.3266L33.1271 69.9366L34.6463 68.56L36.1782 67.1964L37.7215 65.8457L39.2751 64.5073L40.8381 63.181L42.4095 61.8663L43.9884 60.5631L45.5742 59.2708L47.1662 57.9892L48.764 56.718L50.367 55.4568L51.9749 54.2055L53.5876 52.9636L55.2049 51.7311L56.8267 50.5077L58.4532 49.2933L60.0844 48.0878L61.7204 46.891L63.3614 45.7029L65.0077 44.5234L66.6595 43.3525L68.3172 42.1901L69.981 41.0364L71.6514 39.8913L73.3288 38.755L75.0134 37.6276L76.7059 36.5092L78.4066 35.4L80.116 34.3002L81.8345 33.21L83.5627 32.1297L85.3009 31.0595L87.0497 29.9999L88.8095 28.951L90.5808 27.9133L92.364 26.8871L94.1595 25.8729L95.9677 24.871L97.789 23.8819L99.6237 22.906L101.472 21.9439L103.335 20.9959L105.212 20.0626L107.103 19.1444L109.01 18.2419L110.931 17.3556L112.867 16.486L114.818 15.6335L116.785 14.7987L118.767 13.9821L120.764 13.1843L122.776 12.4056L124.803 11.6465L126.844 10.9076L128.901 10.1893L130.971 9.49209L133.056 8.81631L135.155 8.16242L137.267 7.53083L139.392 6.92193L141.529 6.33613L143.679 5.77384L145.841 5.23546L148.015 4.72139L150.199 4.23202L152.393 3.76772L154.598 3.32887L156.811 2.91583L159.034 2.52894L161.265 2.16852L163.503 1.83489L165.748 1.52834L167.999 1.24913L170.256 0.997517L172.518 0.773728L174.783 0.577964L177.052 0.410402L179.324 0.271194L181.597 0.160466L183.871 0.078315L186.145 0.0248123L188.418 0L190.689 0.00389191L192.959 0.036473L195.224 0.0976991L197.486 0.187497L199.742 0.305765L201.993 0.452371L204.237 0.627155L206.473 0.829928L208.7 1.06047L210.919 1.31854L213.127 1.60387L215.323 1.91615L217.508 2.25505L219.681 2.62023L221.839 3.0113L223.984 3.42787L226.113 3.86949L228.227 4.33573L230.324 4.8261L232.404 5.34011L234.466 5.87723L236.51 6.43693L238.534 7.01864L240.539 7.62179L242.523 8.24576L244.487 8.88994L246.429 9.55369L248.349 10.2364L250.247 10.9373L252.123 11.6557L253.975 12.3911L255.804 13.1426L257.609 13.9096L259.391 14.6913L261.148 15.4871L262.881 16.2963L264.59 17.118L266.273 17.9517L267.932 18.7966L269.567 19.652L271.176 20.5171L272.761 21.3913L274.321 22.2739L275.856 23.1641L277.367 24.0613L278.854 24.9648L280.316 25.8739L281.755 26.7879L283.17 27.7062L284.561 28.6281L285.93 29.553L287.275 30.4802L288.599 31.4091L289.9 32.3392L291.18 33.2698L292.439 34.2004L293.677 35.1304L294.896 36.0592L296.094 36.9863L297.274 37.9111L298.436 38.8333L299.58 39.7523L300.707 40.6676L301.818 41.5788L302.912 42.4855L303.992 43.3872L305.058 44.2836L306.11 45.1742L307.149 46.0589L308.176 46.9371L309.192 47.8087L310.197 48.6733L311.192 49.5307L312.179 50.3806L313.158 51.223L314.129 52.0577L315.093 52.8846L316.052 53.7035L317.005 54.5146L317.954 55.3177L318.9 56.1129L319.842 56.9002L320.782 57.6798L321.72 58.4517L322.657 59.216L323.594 59.9729L324.53 60.7226L325.468 61.4653L326.406 62.2012L327.346 62.9305L328.289 63.6535L329.234 64.3705L330.182 65.0817L331.134 65.7876L332.09 66.4883L333.05 67.1843L334.015 67.8759L334.984 68.5635L335.959 69.2475L336.939 69.9282L337.925 70.6061L338.916 71.2815L339.914 71.9549L340.917 72.6268L341.926 73.2975L342.942 73.9675L343.963 74.6372L344.991 75.307L346.025 75.9775L347.064 76.6491L348.11 77.3221L349.161 77.9972L350.217 78.6746L351.279 79.3548L352.345 80.0384L353.417 80.7256L354.493 81.417L355.573 82.1129L356.657 82.8137L357.744 83.5199L358.834 84.2318L359.927 84.9498L361.023 85.6742L362.12 86.4055L363.218 87.1439L364.318 87.8898L365.418 88.6435L366.518 89.4053L367.617 90.1756L368.715 90.9547L369.811 91.7428L370.904 92.5402L371.994 93.3472L373.08 94.164L374.162 94.9909L375.238 95.8281L376.308 96.6758L377.37 97.5342L378.425 98.4035L379.471 99.2837L380.508 100.175L381.534 101.078L382.549 101.992L383.552 102.917L384.541 103.854L385.517 104.802L386.479 105.762L387.425 106.733L388.354 107.716L389.266 108.71L390.161 109.715L391.036 110.731L391.892 111.759L392.728 112.797L393.542 113.846L394.335 114.906L395.106 115.976L395.853 117.056L396.577 118.146L397.277 119.246L397.952 120.355L398.602 121.474L399.226 122.601L399.824 123.737L400.396 124.881L400.942 126.033L401.461 127.192L401.953 128.359Z" fill="url(#paint0_linear_107_434)"/>
<defs>
<linearGradient id="paint0_linear_107_434" x1="104.376" y1="198.743" x2="447.964" y2="18.2961" gradientUnits="userSpaceOnUse">
<stop stop-color="#FFF6F1"/>
<stop offset="1" stop-color="#BED1CF"/>
</linearGradient>
</defs>
</svg>
