<svg width="298" height="298" viewBox="0 0 298 298" fill="none" xmlns="http://www.w3.org/2000/svg">
<path fill-rule="evenodd" clip-rule="evenodd" d="M298 149L297.992 150.49L297.97 151.979L297.933 153.469L297.881 154.958L297.814 156.446L297.732 157.934L297.635 159.421L297.523 160.907L297.397 162.391L297.255 163.875L297.099 165.357L296.928 166.837L296.743 168.315L296.542 169.792L296.327 171.266L296.097 172.738L295.852 174.208L295.593 175.675L295.318 177.14L295.03 178.601L294.726 180.06L294.409 181.516L294.076 182.968L293.729 184.417L293.368 185.863L292.992 187.305L292.602 188.743L292.197 190.177L291.778 191.606L291.345 193.032L290.898 194.453L290.436 195.87L289.96 197.282L289.47 198.689L288.966 200.091L288.448 201.488L287.917 202.88L287.371 204.267L286.811 205.648L286.238 207.023L285.651 208.392L285.05 209.756L284.436 211.113L283.808 212.465L283.166 213.809L282.512 215.148L281.843 216.48L281.162 217.805L280.467 219.123L279.76 220.434L279.039 221.738L278.305 223.035L277.558 224.324L276.798 225.606L276.026 226.88L275.241 228.146L274.443 229.405L273.633 230.655L272.81 231.897L271.975 233.131L271.127 234.357L270.268 235.574L269.396 236.782L268.512 237.982L267.616 239.172L266.709 240.354L265.789 241.526L264.858 242.69L263.915 243.844L262.961 244.988L261.996 246.123L261.019 247.248L260.031 248.363L259.032 249.468L258.021 250.564L257 251.649L255.969 252.724L254.926 253.788L253.873 254.842L252.809 255.886L251.735 256.918L250.651 257.94L249.556 258.951L248.452 259.951L247.337 260.94L246.213 261.918L245.079 262.885L243.935 263.84L242.782 264.783L241.62 265.715L240.448 266.636L239.267 267.544L238.077 268.441L236.878 269.326L235.671 270.198L234.454 271.059L233.229 271.908L231.996 272.744L230.755 273.567L229.505 274.379L228.247 275.178L226.981 275.964L225.708 276.737L224.427 277.498L223.138 278.246L221.842 278.981L220.538 279.702L219.228 280.411L217.91 281.107L216.586 281.789L215.254 282.459L213.916 283.115L212.572 283.757L211.221 284.386L209.864 285.001L208.501 285.603L207.132 286.191L205.758 286.766L204.377 287.327L202.991 287.873L201.6 288.406L200.203 288.925L198.801 289.43L197.394 289.921L195.983 290.398L194.567 290.861L193.146 291.31L191.72 291.744L190.291 292.164L188.857 292.57L187.419 292.961L185.978 293.338L184.533 293.701L183.084 294.049L181.632 294.382L180.176 294.701L178.718 295.006L177.256 295.296L175.792 295.571L174.325 295.832L172.855 296.077L171.383 296.309L169.909 296.525L168.433 296.727L166.955 296.914L165.475 297.086L163.993 297.243L162.51 297.386L161.025 297.513L159.54 297.626L158.053 297.724L156.565 297.807L155.077 297.876L153.588 297.929L152.098 297.967L150.608 297.991L149.118 298L147.628 297.993L146.139 297.972L144.649 297.936L143.16 297.885L141.671 297.819L140.184 297.739L138.697 297.643L137.211 297.532L135.726 297.407L134.243 297.267L132.761 297.112L131.281 296.942L129.802 296.758L128.325 296.558L126.851 296.344L125.379 296.115L123.909 295.872L122.441 295.613L120.976 295.341L119.514 295.053L118.055 294.751L116.599 294.434L115.147 294.103L113.697 293.757L112.252 293.397L110.809 293.022L109.371 292.633L107.937 292.23L106.507 291.812L105.081 291.38L103.659 290.933L102.242 290.473L100.83 289.998L99.4221 289.51L98.0195 289.007L96.622 288.49L95.2298 287.959L93.8429 287.415L92.4615 286.856L91.0858 286.284L89.7159 285.698L88.3519 285.098L86.9939 284.485L85.6422 283.858L84.2968 283.218L82.9579 282.564L81.6256 281.897L80.3 281.217L78.9813 280.523L77.6696 279.816L76.365 279.096L75.0677 278.364L73.7777 277.618L72.4953 276.859L71.2206 276.088L69.9536 275.304L68.6946 274.507L67.4435 273.698L66.2006 272.876L64.966 272.042L63.7398 271.195L62.5222 270.336L61.3131 269.466L60.1129 268.583L58.9215 267.688L57.7392 266.781L56.5659 265.863L55.4019 264.932L54.2473 263.991L53.1022 263.037L51.9666 262.073L50.8407 261.097L49.7247 260.11L48.6186 259.111L47.5225 258.102L46.4366 257.082L45.3609 256.051L44.2956 255.009L43.2407 253.957L42.1965 252.894L41.1629 251.821L40.1401 250.737L39.1281 249.644L38.1272 248.54L37.1374 247.426L36.1587 246.303L35.1913 245.169L34.2354 244.027L33.2908 242.874L32.3579 241.712L31.4366 240.541L30.5271 239.361L29.6294 238.172L28.7437 236.974L27.87 235.767L27.0084 234.551L26.159 233.327L25.3218 232.094L24.4971 230.854L23.6848 229.604L22.885 228.347L22.0979 227.082L21.3234 225.809L20.5617 224.529L19.8128 223.241L19.0769 221.945L18.3539 220.642L17.6441 219.332L16.9473 218.015L16.2638 216.691L15.5935 215.36L14.9366 214.023L14.2931 212.679L13.663 211.329L13.0465 209.972L12.4436 208.61L11.8543 207.241L11.2788 205.867L10.717 204.487L10.169 203.101L9.63496 201.71L9.11483 200.314L8.60868 198.913L8.11658 197.506L7.63856 196.095L7.17468 194.679L6.72498 193.259L6.28951 191.834L5.86831 190.405L5.46143 188.971L5.06889 187.534L4.69075 186.093L4.32704 184.648L3.9778 183.199L3.64306 181.747L3.32286 180.292L3.01722 178.834L2.72618 177.373L2.44977 175.908L2.18801 174.442L1.94094 172.972L1.70857 171.5L1.49093 170.026L1.28804 168.55L1.09992 167.072L0.926591 165.592L0.768069 164.111L0.624371 162.628L0.495509 161.143L0.381498 159.658L0.282349 158.171L0.198071 156.683L0.128674 155.195L0.074163 153.706L0.0345448 152.217L0.00982294 150.727L0 149.237L0.00507692 147.747L0.0250532 146.257L0.0599268 144.767L0.109694 143.278L0.174351 141.79L0.253889 140.302L0.348303 138.815L0.457581 137.329L0.581713 135.844L0.720687 134.361L0.874489 132.878L1.0431 131.398L1.22651 129.919L1.4247 128.443L1.63764 126.968L1.86533 125.495L2.10772 124.025L2.3648 122.558L2.63655 121.093L2.92293 119.63L3.22392 118.171L3.53949 116.715L3.8696 115.262L4.21423 113.812L4.57333 112.366L4.94688 110.924L5.33483 109.485L5.73715 108.051L6.1538 106.62L6.58473 105.194L7.0299 103.772L7.48926 102.354L7.96278 100.942L8.45041 99.5338L8.95208 98.1308L9.46776 96.7329L9.9974 95.3402L10.5409 93.9529L11.0983 92.5711L11.6695 91.1949L12.2544 89.8245L12.853 88.46L13.4652 87.1016L14.0909 85.7494L14.7301 84.4035L15.3828 83.064L16.0488 81.7312L16.7282 80.4051L17.4207 79.0858L18.1264 77.7735L18.8452 76.4684L19.577 75.1705L20.3218 73.88L21.0794 72.5969L21.8498 71.3216L22.6329 70.054L23.4287 68.7943L24.237 67.5426L25.0578 66.2991L25.891 65.0638L26.7365 63.8369L27.5942 62.6186L28.4641 61.4089L29.346 60.2079L30.2399 59.0158L31.1456 57.8327L32.0632 56.6588L32.9924 55.4941L33.9332 54.3387L34.8856 53.1928L35.8493 52.0564L36.8244 50.9298L37.8107 49.813L38.8081 48.706L39.8166 47.6092L40.8359 46.5224L41.8661 45.4459L42.9069 44.3798L43.9584 43.3241L45.0204 42.279L46.0928 41.2445L47.1755 40.2209L48.2683 39.2081L49.3713 38.2063L50.4842 37.2156L51.6069 36.236L52.7394 35.2677L53.8815 34.3108L55.0331 33.3654L56.1942 32.4315L57.3645 31.5093L58.5439 30.5988L59.7324 29.7002L60.9299 28.8135L62.1361 27.9389L63.351 27.0763L64.5745 26.2259L65.8065 25.3878L67.0467 24.5621L68.2952 23.7488L69.5517 22.948L70.8162 22.1598L72.0885 21.3844L73.3684 20.6216L74.656 19.8718L75.951 19.1348L77.2532 18.4108L78.5627 17.6999L79.8792 17.0021L81.2026 16.3175L82.5328 15.6462L83.8696 14.9882L85.213 14.3436L86.5627 13.7125L87.9187 13.0949L89.2807 12.4909L90.6488 11.9005L92.0227 11.3238L93.4023 10.761L94.7874 10.2119L96.178 9.67674L97.5738 9.1555L98.9748 8.64824L100.381 8.15501L101.792 7.67587L103.207 7.21087L104.627 6.76004L106.052 6.32343L107.481 5.90109L108.914 5.49307L110.351 5.09939L111.792 4.7201L113.236 4.35524L114.685 4.00485L116.136 3.66895L117.591 3.34759L119.049 3.04079L120.51 2.74859L121.974 2.47101L123.441 2.20809L124.91 1.95984L126.382 1.7263L127.855 1.50748L129.331 1.30342L130.809 1.11412L132.289 0.939615L133.77 0.779914L135.253 0.635034L136.738 0.504991L138.223 0.389797L139.71 0.289463L141.197 0.204001L142.686 0.133418L144.175 0.0777219L145.664 0.0369176L147.154 0.0110094L148.644 0L150.134 0.0038904L151.624 0.0226802L153.113 0.0563677L154.603 0.104949L156.091 0.16842L157.579 0.246774L159.066 0.340003L160.552 0.448098L162.037 0.571048L163.521 0.708841L165.003 0.861462L166.483 1.0289L167.962 1.21113L169.439 1.40814L170.914 1.61991L172.387 1.84642L173.857 2.08764L175.325 2.34356L176.79 2.61414L178.253 2.89935L179.712 3.19918L181.169 3.51359L182.622 3.84255L184.072 4.18602L185.518 4.54397L186.961 4.91637L188.4 5.30318L189.835 5.70435L191.265 6.11986L192.692 6.54965L194.114 6.99369L195.532 7.45193L196.945 7.92432L198.354 8.41082L199.757 8.91138L201.155 9.42595L202.548 9.95448L203.936 10.4969L205.318 11.0532L206.695 11.6233L208.066 12.2071L209.431 12.8046L210.79 13.4157L212.143 14.0403L213.489 14.6785L214.829 15.3301L216.162 15.9951L217.489 16.6733L218.809 17.3648L220.122 18.0695L221.427 18.7872L222.726 19.518L224.017 20.2617L225.301 21.0183L226.577 21.7877L227.845 22.5698L229.105 23.3646L230.357 24.1719L231.602 24.9917L232.838 25.8239L234.065 26.6685L235.284 27.5252L236.495 28.3941L237.696 29.2751L238.889 30.168L240.073 31.0728L241.247 31.9894L242.413 32.9177L243.569 33.8577L244.716 34.8091L245.853 35.772L246.98 36.7461L248.098 37.7315L249.206 38.7281L250.303 39.7356L251.391 40.7541L252.468 41.7834L253.535 42.8234L254.592 43.8741L255.638 44.9352L256.673 46.0068L257.697 47.0886L258.711 48.1807L259.714 49.2828L260.705 50.3949L261.686 51.5169L262.655 52.6486L263.613 53.79L264.559 54.9408L265.494 56.1011L266.417 57.2707L267.328 58.4494L268.228 59.6372L269.116 60.834L269.991 62.0395L270.855 63.2537L271.706 64.4766L272.545 65.7078L273.372 66.9474L274.186 68.1952L274.988 69.4511L275.777 70.715L276.554 71.9866L277.317 73.266L278.068 74.5529L278.806 75.8473L279.531 77.149L280.243 78.4579L280.942 79.7738L281.628 81.0967L282.3 82.4264L282.959 83.7627L283.605 85.1055L284.237 86.4547L284.856 87.8102L285.461 89.1718L286.052 90.5394L286.63 91.9128L287.194 93.292L287.744 94.6767L288.281 96.0668L288.803 97.4622L289.311 98.8628L289.806 100.268L290.286 101.679L290.752 103.094L291.204 104.514L291.642 105.938L292.065 107.367L292.474 108.799L292.869 110.236L293.25 111.677L293.616 113.121L293.967 114.569L294.304 116.02L294.627 117.475L294.935 118.933L295.228 120.394L295.507 121.857L295.771 123.324L296.02 124.793L296.255 126.264L296.475 127.738L296.68 129.214L296.871 130.691L297.046 132.171L297.207 133.652L297.353 135.135L297.485 136.619L297.601 138.105L297.702 139.591L297.789 141.079L297.861 142.567L297.918 144.056L297.96 145.545L297.987 147.035L297.999 148.525L298 149Z" fill="url(#paint0_linear_107_416)"/>
<defs>
<linearGradient id="paint0_linear_107_416" x1="-1535.37" y1="1640.79" x2="-1317.78" y2="1844.4" gradientUnits="userSpaceOnUse">
<stop stop-color="#BED1CF"/>
<stop offset="1" stop-color="#FEE3C8"/>
</linearGradient>
</defs>
</svg>
