<svg width="369" height="498" viewBox="0 0 369 498" fill="none" xmlns="http://www.w3.org/2000/svg">
<path fill-rule="evenodd" clip-rule="evenodd" d="M549.011 267.172L549.296 270.924L549.507 274.683L549.642 278.447L549.703 282.214L549.689 285.983L549.601 289.753L549.44 293.521L549.205 297.286L548.897 301.046L548.517 304.801L548.065 308.548L547.541 312.285L546.947 316.013L546.282 319.728L545.547 323.431L544.744 327.118L543.872 330.79L542.934 334.444L541.929 338.08L540.858 341.696L539.722 345.29L538.522 348.863L537.258 352.412L535.933 355.937L534.545 359.435L533.097 362.907L531.589 366.351L530.022 369.766L528.397 373.151L526.715 376.506L524.978 379.828L523.185 383.118L521.34 386.374L519.442 389.597L517.494 392.785L515.495 395.937L513.448 399.054L511.353 402.133L509.21 405.174L507.021 408.177L504.785 411.14L502.503 414.062L500.175 416.942L497.802 419.779L495.383 422.571L492.918 425.317L490.408 428.016L487.852 430.665L485.251 433.264L482.604 435.81L479.911 438.302L477.172 440.737L474.388 443.114L471.558 445.431L468.682 447.685L465.761 449.875L462.794 451.998L459.784 454.053L456.728 456.036L453.63 457.947L450.488 459.782L447.305 461.541L444.081 463.22L440.817 464.819L437.515 466.335L434.177 467.768L430.803 469.114L427.396 470.374L423.958 471.546L420.491 472.629L416.997 473.622L413.479 474.524L409.938 475.336L406.379 476.057L402.802 476.687L399.212 477.227L395.611 477.677L392.002 478.037L388.388 478.31L384.772 478.496L381.157 478.597L377.546 478.614L373.942 478.55L370.349 478.407L366.768 478.187L363.203 477.894L359.658 477.529L356.133 477.097L352.633 476.6L349.159 476.041L345.714 475.426L342.301 474.756L338.92 474.037L335.575 473.273L332.267 472.469L328.999 471.63L325.771 470.761L322.585 469.867L319.442 468.954L316.344 468.027L313.29 467.093L310.281 466.157L307.318 465.224L304.4 464.301L301.526 463.393L298.697 462.506L295.91 461.645L293.166 460.816L290.462 460.024L287.797 459.275L285.169 458.574L282.575 457.927L280.013 457.338L277.481 456.813L274.975 456.358L272.492 455.976L270.03 455.672L267.583 455.45L265.148 455.313L262.722 455.263L260.3 455.303L257.878 455.434L255.451 455.657L253.015 455.972L250.566 456.379L248.099 456.878L245.61 457.468L243.095 458.145L240.55 458.909L237.97 459.755L235.353 460.682L232.694 461.684L229.99 462.757L227.238 463.897L224.436 465.099L221.579 466.357L218.667 467.665L215.698 469.017L212.669 470.406L209.58 471.826L206.429 473.27L203.216 474.73L199.941 476.201L196.604 477.673L193.205 479.14L189.745 480.595L186.226 482.03L182.649 483.437L179.016 484.81L175.329 486.142L171.59 487.426L167.803 488.654L163.97 489.821L160.094 490.919L156.18 491.944L152.23 492.89L148.249 493.75L144.241 494.521L140.21 495.197L136.159 495.775L132.095 496.249L128.02 496.617L123.94 496.876L119.858 497.024L115.78 497.056L111.709 496.973L107.65 496.772L103.607 496.452L99.5847 496.013L95.5863 495.455L91.6159 494.776L87.6773 493.979L83.7739 493.063L79.9094 492.029L76.0873 490.878L72.3115 489.61L68.5856 488.227L64.9135 486.729L61.2991 485.118L57.7462 483.393L54.2588 481.557L50.8409 479.609L47.4965 477.553L44.2297 475.388L41.0446 473.115L37.9452 470.738L34.9357 468.256L32.0204 465.672L29.2035 462.988L26.4893 460.204L23.8823 457.323L21.3869 454.348L19.0079 451.279L16.7501 448.118L14.6183 444.869L12.6175 441.532L10.7526 438.111L9.02782 434.609L7.44695 431.028L6.01335 427.374L4.72984 423.649L3.59864 419.859L2.62138 416.008L1.79906 412.102L1.13203 408.147L0.619963 404.147L0.261855 400.109L0.0560021 396.039L0 391.944L0.0907447 387.829L0.324435 383.701L0.696584 379.566L1.20203 375.431L1.83496 371.302L2.58893 367.184L3.45689 363.085L4.43124 359.008L5.50383 354.96L6.66603 350.946L7.90878 346.97L9.2226 343.037L10.5977 339.151L12.024 335.315L13.4912 331.532L14.9888 327.804L16.5062 324.135L18.0329 320.524L19.5583 316.973L21.0718 313.483L22.5633 310.054L24.0226 306.684L25.4399 303.373L26.8059 300.119L28.1115 296.919L29.3483 293.772L30.5084 290.674L31.5843 287.622L32.5694 284.612L33.4578 281.639L34.2441 278.699L34.924 275.788L35.4939 272.899L35.9509 270.029L36.2932 267.172L36.5198 264.321L36.6307 261.473L36.6266 258.621L36.5093 255.761L36.2815 252.886L35.9468 249.993L35.5095 247.076L34.975 244.13L34.3493 241.153L33.6392 238.139L32.8521 235.087L31.9952 231.991L31.0758 228.851L30.1015 225.663L29.0798 222.426L28.0184 219.138L26.925 215.797L25.8075 212.404L24.6738 208.956L23.5317 205.456L22.3892 201.901L21.2542 198.294L20.1344 194.635L19.0377 190.925L17.9716 187.167L16.9434 183.362L15.9601 179.513L15.0285 175.621L14.1549 171.69L13.3453 167.722L12.6051 163.721L11.939 159.69L11.3514 155.631L10.8462 151.548L10.4274 147.445L10.0988 143.324L9.86397 139.189L9.72657 135.045L9.68994 130.896L9.75727 126.745L9.93159 122.597L10.2157 118.458L10.6121 114.33L11.1232 110.22L11.7511 106.131L12.4974 102.069L13.3637 98.038L14.3512 94.0434L15.4609 90.0899L16.6932 86.1823L18.0485 82.3252L19.5267 78.5233L21.1274 74.7811L22.8499 71.103L24.6932 67.4934L26.656 63.9563L28.7366 60.4956L30.9331 57.1151L33.2433 53.8182L35.6646 50.6082L38.1943 47.4883L40.8295 44.461L43.5667 41.529L46.4027 38.6945L49.3337 35.9595L52.356 33.3257L55.4656 30.7944L58.6583 28.3669L61.9299 26.0439L65.2763 23.826L68.6929 21.7137L72.1755 19.7068L75.7195 17.8053L79.3205 16.0086L82.9742 14.3162L86.6761 12.7272L90.422 11.2405L94.2075 9.85488L98.0285 8.56895L101.881 7.38117L105.761 6.28985L109.665 5.29325L113.588 4.38948L117.528 3.57661L121.481 2.85267L125.444 2.21563L129.414 1.66344L133.387 1.19406L137.361 0.805448L141.333 0.49559L145.302 0.26249L149.264 0.104006L153.216 0.0175342L157.158 0L161.085 0.0479048L164.996 0.15738L168.889 0.324235L172.761 0.54401L176.61 0.81202L180.435 1.1234L184.234 1.47314L188.006 1.85613L191.749 2.2672L195.463 2.70113L199.148 3.15271L202.802 3.61672L206.427 4.08798L210.021 4.56135L213.586 5.03173L217.122 5.49411L220.631 5.9435L224.112 6.37499L227.569 6.78369L231.001 7.16479L234.412 7.51375L237.803 7.82656L241.176 8.09985L244.535 8.33083L247.882 8.51738L251.219 8.65799L254.55 8.7518L257.878 8.7986L261.204 8.79878L264.534 8.75337L267.868 8.66397L271.21 8.53279L274.562 8.36256L277.927 8.15653L281.307 7.91845L284.704 7.6525L288.119 7.36329L291.555 7.05578L295.012 6.73528L298.491 6.40735L301.992 6.07782L305.517 5.75268L309.064 5.43808L312.634 5.14026L316.226 4.86551L319.839 4.62013L323.471 4.41036L327.121 4.24238L330.787 4.12223L334.467 4.05577L338.158 4.04869L341.857 4.10642L345.563 4.23411L349.271 4.43664L352.978 4.71852L356.681 5.08395L360.377 5.53674L364.061 6.08031L367.731 6.71769L371.382 7.45148L375.011 8.28387L378.614 9.21665L382.187 10.2512L385.726 11.3883L389.229 12.6287L392.692 13.9723L396.111 15.4189L399.483 16.9679L402.806 18.6182L406.076 20.3685L409.29 22.2171L412.448 24.162L415.545 26.2009L418.58 28.3313L421.552 30.5505L424.458 32.8555L427.298 35.2432L430.07 37.7104L432.773 40.2535L435.407 42.8688L437.973 45.5519L440.47 48.2982L442.899 51.1029L445.264 53.9608L447.564 56.867L449.803 59.816L451.983 62.8029L454.107 65.8226L456.179 68.8702L458.202 71.9409L460.178 75.0303L462.113 78.1342L464.01 81.2487L465.872 84.3701L467.704 87.4953L469.509 90.6212L471.291 93.7454L473.054 96.8655L474.801 99.9798L476.536 103.087L478.261 106.185L479.981 109.273L481.698 112.352L483.415 115.42L485.134 118.478L486.857 121.526L488.585 124.565L490.32 127.596L492.064 130.621L493.816 133.64L495.577 136.655L497.346 139.668L499.124 142.681L500.909 145.696L502.701 148.716L504.498 151.741L506.298 154.774L508.1 157.818L509.901 160.874L511.698 163.945L513.489 167.032L515.272 170.138L517.042 173.263L518.797 176.41L520.534 179.58L522.249 182.775L523.939 185.995L525.601 189.241L527.23 192.515L528.824 195.817L530.379 199.146L531.893 202.505L533.36 205.892L534.78 209.307L536.148 212.751L537.462 216.222L538.719 219.72L539.917 223.245L541.053 226.795L542.125 230.37L543.132 233.968L544.071 237.588L544.941 241.229L545.741 244.889L546.47 248.567L547.125 252.262L547.708 255.971L548.217 259.693L548.651 263.428L549.011 267.172Z" fill="url(#paint0_linear_107_437)"/>
<defs>
<linearGradient id="paint0_linear_107_437" x1="555.764" y1="-322.675" x2="812.26" y2="119.103" gradientUnits="userSpaceOnUse">
<stop stop-color="#FEE3C8"/>
<stop offset="1" stop-color="#E58795"/>
</linearGradient>
</defs>
</svg>
